<svg width="141" height="50" viewBox="0 0 141 50" fill="none" xmlns="http://www.w3.org/2000/svg">
<g clip-path="url(#clip0_27_286)">
<path d="M95.7695 18.0645H93.4666C93.2504 18.0645 93.0752 18.2318 93.0752 18.4381V32.7264C93.0752 32.9328 93.2504 33.1002 93.4666 33.1002H95.7695C95.9856 33.1002 96.1608 32.9328 96.1608 32.7264V18.4381C96.1608 18.2318 95.9856 18.0645 95.7695 18.0645Z" fill="#00683F"/>
<path d="M95.7695 12.7637H93.4666C93.2504 12.7637 93.0752 12.931 93.0752 13.1374V15.3552C93.0752 15.5616 93.2504 15.7289 93.4666 15.7289H95.7695C95.9856 15.7289 96.1608 15.5616 96.1608 15.3552V13.1374C96.1608 12.931 95.9856 12.7637 95.7695 12.7637Z" fill="#00683F"/>
<path d="M98.6612 33.0977C98.4447 33.0977 98.2695 32.93 98.2695 32.724V13.1315C98.2695 12.9255 98.4447 12.7578 98.6612 12.7578H100.964C101.179 12.7578 101.355 12.9255 101.355 13.1315V18.0712H104.967C105.092 18.0712 105.188 18.119 105.24 18.204C105.289 18.2878 105.286 18.3949 105.231 18.4822C105.095 18.6976 104.051 20.2809 103.918 20.4579C103.769 20.6558 103.621 20.6558 103.452 20.6558L101.355 20.6534V32.7228C101.355 32.9289 101.179 33.0965 100.964 33.0965H98.6612V33.0977Z" fill="#00683F"/>
<path d="M75.4757 38.1951C75.2478 38.1951 75.0625 38.0182 75.0625 37.8005V25.5158C75.0625 23.3806 75.911 21.384 77.4532 19.895C78.9869 18.413 81.0325 17.5957 83.2135 17.5957C87.7085 17.5957 91.3647 21.1989 91.3647 25.6276C91.3647 30.0562 87.8864 33.6594 83.4452 33.6594C82.4565 33.6594 80.8924 33.3858 79.7378 32.6139C79.7329 32.6104 79.6013 32.5313 79.5342 32.4218C79.4769 32.3287 79.4781 32.2577 79.4781 32.189V32.1576C79.4671 31.3881 79.4781 29.5952 79.4781 29.5777C79.4781 29.4415 79.5611 29.3426 79.6769 29.3426C79.75 29.3426 79.828 29.3798 79.9036 29.4497C80.8899 30.3158 81.9822 30.7012 83.4452 30.7012C86.2248 30.7012 88.2437 28.5672 88.2437 25.6276C88.2437 22.8545 86.0809 20.7623 83.2135 20.7623C80.3462 20.7623 78.2261 22.731 78.1871 25.4425C78.1871 25.4425 78.1737 34.5081 78.1737 35.1473C78.1737 35.3719 78.1737 35.4395 77.9774 35.741C77.9372 35.8027 77.7421 36.0612 77.5153 36.3603C77.1557 36.8365 76.7071 37.4291 76.4852 37.7539C76.1828 38.1951 76.0036 38.1951 75.8134 38.1951H75.4757Z" fill="#00683F"/>
<path d="M49.2867 33.607C47.1313 33.607 45.0856 32.7571 43.5727 31.2612C42.0573 29.7616 41.249 27.7825 41.249 25.6415C41.249 21.313 44.9295 17.6562 49.2867 17.6562C52.0773 17.6562 54.1973 19.1325 55.4835 20.37C55.5994 20.4806 56.1735 21.0557 56.1662 21.4912C56.1614 21.8264 56.0004 22.0884 55.931 22.2001L53.4269 26.2783C53.3013 26.4646 53.0355 26.687 52.7051 26.687H46.245C46.1365 26.687 46.0487 26.6428 46.0024 26.5659C45.9561 26.4867 45.9597 26.3889 46.0134 26.3028C46.1499 26.0851 46.9996 24.7986 47.1362 24.6182C47.2849 24.4203 47.4324 24.4203 47.6019 24.4203H51.9152C52.1699 24.4203 52.254 24.3935 52.3662 24.2037C52.3662 24.2037 53.0416 23.0616 53.2099 22.7834C53.2684 22.6868 53.2879 22.5424 53.1672 22.4295C51.5555 20.9335 50.0426 20.71 49.2843 20.71C46.4218 20.71 44.2627 22.851 44.2627 25.6904C44.2627 27.0677 44.7345 28.332 45.5903 29.2506C46.5083 30.2366 47.786 30.7676 49.2843 30.7676C50.657 30.7676 51.8164 30.6767 53.2038 29.2227C53.9243 28.4682 54.7996 27.0199 54.8081 27.006C54.8081 27.006 56.9428 23.4191 57.6487 22.2351C57.9681 21.6996 58.5984 20.8346 59.2896 20.1872C60.5185 19.0335 62.5703 17.6574 65.3633 17.6574C69.8119 17.6574 73.4315 21.2723 73.4315 25.7161C73.4315 30.1598 69.9265 33.6035 65.4523 33.607C62.8629 33.6094 60.41 32.2449 59.3384 30.8723C59.0812 30.5429 58.691 30.0469 58.6801 29.6522C58.6727 29.3902 58.763 29.1388 58.8434 29.0026C59.2153 28.3728 59.9906 27.0875 61.1586 25.1572C61.3219 24.9197 61.5999 24.7614 61.8657 24.7579L68.3514 24.7637C68.4599 24.7637 68.5453 24.8056 68.5891 24.8813C68.6355 24.9593 68.6306 25.0571 68.5757 25.1433C68.4428 25.3551 67.6017 26.6463 67.4627 26.8302C67.3139 27.0281 67.1664 27.0281 66.9969 27.0281C66.9969 27.0281 62.8605 27.0258 62.7251 27.0258C62.4703 27.0258 62.3911 27.0514 62.274 27.2412C62.0559 27.5974 61.3987 28.6754 61.3987 28.6754C61.3305 28.7872 61.3354 28.9083 61.4109 29.0247C61.5267 29.1831 61.7961 29.4392 61.7961 29.4392C62.63 30.2751 64.0101 30.7664 65.3621 30.7664C68.3063 30.7664 70.3886 28.6184 70.3886 25.6904C70.3886 22.9441 68.1331 20.71 65.3621 20.71C63.8504 20.71 62.5069 21.2758 61.3683 22.3934C60.7185 23.0314 60.2222 23.851 59.8236 24.5099C59.8236 24.5099 57.5767 28.382 57.1562 29.0399C55.8249 31.1238 53.3781 33.6094 49.2831 33.6094L49.2867 33.607Z" fill="#00683F"/>
<path d="M32.1005 32.7801C32.1005 32.9862 31.925 33.1539 31.7092 33.1539H29.4148C29.199 33.1539 29.0234 32.9862 29.0234 32.7801V32.6126V15.7851C29.0234 15.5604 29.0234 15.4929 29.2197 15.1913C29.2599 15.1296 30.4364 13.5766 30.6595 13.2518C30.9618 12.8105 31.1411 12.8105 31.3312 12.8105H31.6738C31.9018 12.8105 32.0871 12.9875 32.0871 13.2052C32.0871 13.2052 32.0944 23.5492 32.0944 24.0708C32.0944 24.2721 32.2102 24.3444 32.309 24.3444C32.3955 24.3444 32.487 24.2943 32.5711 24.2012C33.878 22.7529 37.6939 18.5105 37.6939 18.5105C37.928 18.2497 38.3778 18.0448 38.7179 18.0448H41.2025C41.3598 18.0448 41.4951 18.117 41.5488 18.2287C41.6012 18.3394 41.5658 18.4686 41.45 18.5944L35.7408 24.9485C35.4787 25.2396 35.4775 25.4212 35.7347 25.6668C35.7823 25.7158 40.7673 30.8395 42.4302 32.5578C42.5338 32.6649 42.5631 32.793 42.5106 32.9082C42.4533 33.034 42.3095 33.119 42.1546 33.119H39.3506C39.0069 33.119 38.5339 32.9141 38.2949 32.6637C38.251 32.6195 33.9902 28.2572 32.5248 26.7065C32.4553 26.632 32.3821 26.5947 32.3102 26.5947C32.259 26.5947 32.2115 26.6146 32.1749 26.6506C32.1249 26.6995 32.0969 26.774 32.0993 26.8567V32.779L32.1005 32.7801Z" fill="#00683F"/>
<path d="M108.673 15.2444H108.273V12.7169H109.28C109.905 12.7169 110.215 12.9358 110.215 13.4352C110.215 13.887 109.919 14.0849 109.53 14.1314L110.282 15.2444H109.832L109.136 14.1477H108.674L108.673 15.2444ZM109.153 13.8253C109.493 13.8253 109.797 13.802 109.797 13.4143C109.797 13.1011 109.5 13.0429 109.22 13.0429H108.673V13.8253H109.153ZM106.828 13.9754C106.828 12.7169 107.897 11.7891 109.159 11.7891C110.421 11.7891 111.479 12.7169 111.479 13.9754C111.479 15.2339 110.41 16.1723 109.159 16.1723C107.908 16.1723 106.828 15.2444 106.828 13.9754ZM109.159 15.8067C110.198 15.8067 111.017 15.0302 111.017 13.9754C111.017 12.9207 110.198 12.1535 109.159 12.1535C108.121 12.1535 107.291 12.9358 107.291 13.9754C107.291 15.0151 108.11 15.8067 109.159 15.8067Z" fill="#00683F"/>
</g>
<defs>
<clipPath id="clip0_27_286">
<rect width="82.4531" height="27.4844" fill="white" transform="translate(29.0234 11.2578)"/>
</clipPath>
</defs>
</svg>
