<svg width="108" height="22" viewBox="0 0 108 22" fill="none" xmlns="http://www.w3.org/2000/svg">
<rect width="108" height="22" fill="#E8E8E8"/>
<rect width="1440" height="934" transform="translate(-456 -810)" fill="white"/>
<rect x="-320.5" y="-21.5" width="1169" height="65" stroke="white"/>
<path fill-rule="evenodd" clip-rule="evenodd" d="M26.5564 4.03823C24.9855 4.21499 23.5193 5.27036 23.0875 6.53519C22.8653 7.18584 22.8383 8.36254 23.0297 9.05063C23.1176 9.36635 23.3957 9.75733 23.8513 10.2056C24.4169 10.762 24.9242 11.0731 26.6863 11.9436C28.9592 13.0665 29.2113 13.2727 29.3123 14.0914C29.3898 14.7188 29.0297 15.318 28.3687 15.6621C27.9007 15.9057 27.6927 15.9367 26.794 15.8971C25.5672 15.8428 24.7097 15.5437 23.5415 14.7619C23.1015 14.4675 22.7214 14.2265 22.6968 14.2265C22.672 14.2265 22.6519 14.7999 22.6519 15.5006V16.7747L23.2915 17.1438C24.4336 17.8028 25.4677 18.0569 26.9767 18.0491C28.0707 18.0435 28.4454 17.9916 29.0175 17.7668C30.7259 17.0953 31.694 15.7575 31.694 14.0684C31.694 12.1003 30.9224 11.2437 27.8904 9.8462C25.9987 8.97428 25.593 8.70537 25.3718 8.17677C25.011 7.31519 25.5236 6.48255 26.5967 6.18701C27.6347 5.90107 29.4035 6.47234 30.5216 7.45439L31.0578 7.92548V6.57519V5.22489L30.492 4.86674C29.3968 4.17366 27.9885 3.87715 26.5564 4.03823ZM38.8797 4.20381C37.697 4.52148 36.8843 5.00241 35.9183 5.95663C34.7852 7.0757 34.1859 8.21714 33.8915 9.81726C33.5385 11.7354 33.9365 13.5335 35.0975 15.2657C36.3405 17.1203 38.2315 18.1188 40.4943 18.1154C42.3361 18.1127 43.691 17.5486 45.0117 16.2348C45.9642 15.2871 46.6312 14.1481 46.9455 12.9325C47.1898 11.9876 47.1939 10.2397 46.9541 9.29803C46.3192 6.80593 44.4059 4.80583 42.0778 4.20065C41.1957 3.97136 39.7396 3.97282 38.8797 4.20381ZM54.6452 4.14971C51.8018 4.81592 49.5682 7.88087 49.5772 11.104C49.5863 14.3262 51.8153 17.3233 54.6952 17.9857C56.5853 18.4203 58.7201 17.8578 60.1997 16.5353L60.8389 15.9639L60.5195 15.5511C60.3438 15.3241 60.009 14.92 59.7755 14.6533L59.3509 14.1681L58.7787 14.6945C57.9205 15.4838 57.2597 15.7422 56.0927 15.7444C55.2721 15.746 55.0096 15.6929 54.4308 15.4094C53.1334 14.7735 52.2783 13.5168 52.0017 11.8396C51.6542 9.73143 52.674 7.58302 54.4308 6.72192C55.0096 6.43842 55.2721 6.38541 56.0927 6.38699C57.2487 6.38918 57.9206 6.64752 58.747 7.40771C59.0442 7.68113 59.3162 7.90482 59.3513 7.90482C59.3865 7.90482 59.7356 7.51396 60.1273 7.03631L60.8394 6.1678L60.1715 5.56991C59.451 4.92473 58.3617 4.34617 57.4903 4.1457C56.8334 3.99471 55.2978 3.99689 54.6452 4.14971ZM63.9799 11.0961L64.0113 17.9345L65.26 17.9691L66.5087 18.0038V11.1307V4.25767H65.2286H63.9483L63.9799 11.0961ZM70.0711 11.0961L70.1025 17.9345L74.3359 17.9665L78.5693 17.9984V16.9027V15.807H75.5846H72.5999V13.9226V12.0383H75.341H78.082V10.9441V9.84996H75.341H72.5999V8.08717V6.32438H75.5846H78.5693V5.29102V4.25767H74.3045H70.0395L70.0711 11.0961ZM81.2494 5.29102V6.32438H83.4411H85.6328L85.6644 12.1294L85.696 17.9345L86.9447 17.9691L88.1934 18.0038V12.1641V6.32438H90.3863H92.5791V5.29102V4.25767H86.9143H81.2494V5.29102ZM95.1374 4.32307C95.1374 4.35906 96.2475 6.01401 97.6044 8.00061L100.071 11.6128L100.132 14.7736L100.193 17.9345L101.442 17.9691L102.691 18.0038V14.9197V11.8357L105.198 8.13787C106.577 6.1041 107.732 4.39893 107.764 4.34884C107.795 4.29864 107.174 4.25973 106.383 4.26216L104.944 4.26666L103.443 6.49057C102.617 7.71371 101.818 8.8684 101.667 9.05659L101.394 9.39869L99.5754 6.83L97.7566 4.26119L96.447 4.25937C95.7267 4.25839 95.1374 4.28709 95.1374 4.32307ZM39.3767 6.493C38.1206 6.9038 37.2232 7.69122 36.6924 8.84846C35.2675 11.9545 37.0756 15.5578 40.1689 15.7763C41.1536 15.8459 41.7433 15.701 42.6269 15.1721C44.6957 13.9339 45.3777 10.7322 44.0531 8.47645C43.65 7.79005 42.7508 6.97139 42.07 6.67086C41.3657 6.36 40.0492 6.27296 39.3767 6.493Z" fill="black"/>
<path fill-rule="evenodd" clip-rule="evenodd" d="M0.235199 10.9999V21.8816H7.84983H15.4646L15.4334 11.0313L15.4023 0.181018L7.81876 0.149652L0.235199 0.118408V10.9999ZM2.42804 11.0629V19.8174L7.81876 19.7857L13.2095 19.7541L13.2408 11.0313L13.272 2.30852H7.85007H2.42804V11.0629Z" fill="#FFCC08"/>
</svg>
