<svg width="141" height="50" viewBox="0 0 141 50" fill="none" xmlns="http://www.w3.org/2000/svg">
<g clip-path="url(#clip0_27_296)">
<mask id="mask0_27_296" style="mask-type:luminance" maskUnits="userSpaceOnUse" x="19" y="16" width="103" height="18">
<path d="M121.59 16.1918H19.4102V33.8394H121.59V16.1918Z" fill="white"/>
</mask>
<g mask="url(#mask0_27_296)">
<path d="M27.0566 28.8634L39.54 16.3978C39.6687 16.2691 39.8433 16.1968 40.0253 16.1968C40.2073 16.1968 40.3819 16.2691 40.5106 16.3978L44.5825 20.4613C44.851 20.7307 44.851 21.1663 44.5825 21.432L32.5859 33.4119C32.3165 33.6803 31.88 33.6803 31.6116 33.4119L27.0557 28.8607V28.8634H27.0566ZM19.6168 21.4347C19.5529 21.3711 19.5021 21.2955 19.4675 21.2122C19.4329 21.1289 19.415 21.0396 19.415 20.9494C19.415 20.8592 19.4329 20.7699 19.4675 20.6866C19.5021 20.6034 19.5529 20.5277 19.6168 20.4641L23.6878 16.3978C23.9572 16.1284 24.3937 16.1284 24.6622 16.3978L30.9735 22.6979L25.93 27.7349L19.6177 21.4347H19.6168Z" fill="black"/>
<path d="M53.4941 18.4946H55.9852L59.9141 28.9261L63.843 18.4955H66.3351L61.2563 31.8928H58.572L53.4941 18.4946ZM74.1696 30.4568C74.1696 30.4568 72.925 32.0832 70.2407 32.0832C67.1747 32.0832 64.8099 29.4054 65.3301 26.3598C65.7332 24.008 67.862 22.273 70.251 22.3232C72.8795 22.377 74.7464 24.4622 74.7464 27.0109C74.7464 27.5868 74.6499 28.0651 74.6499 28.0651H67.6558C67.8871 29.1184 68.8057 30.0742 70.3401 30.0742C71.9684 30.0742 72.9269 28.9057 72.9269 28.9057L74.1724 30.4568H74.1696ZM72.3492 26.2456C72.0622 25.1914 71.294 24.426 70.0485 24.426C68.7063 24.426 67.9401 25.1914 67.654 26.2465L72.3492 26.2456ZM76.5289 22.5136H78.7339V23.8539H78.8295C78.8295 23.8539 79.789 22.3232 81.5138 22.3232H81.8965V24.7149C81.8965 24.7149 81.6104 24.6192 81.1302 24.6192C79.789 24.6192 78.7357 25.6725 78.7357 27.2998V31.8928H76.5316V22.5136H76.5289ZM83.2795 18.4946H85.4836V26.631L89.2193 22.5164H91.9036L88.3574 26.4406L92.094 31.8956H89.6029L86.9186 27.9713L85.4808 29.5967V31.8956H83.2767V18.4946H83.2795ZM98.618 30.6491H98.5214C98.5214 30.6491 97.6595 32.086 95.7443 32.086C93.829 32.086 92.6773 30.8414 92.6773 29.4054C92.6773 27.8747 93.8262 26.7248 95.4545 26.4378L98.618 25.8629C98.618 25.1941 97.8517 24.426 96.7966 24.426C95.3969 24.426 94.4959 25.574 94.4959 25.574L93.1538 24.2337C93.1538 24.2337 94.4959 22.3204 96.8904 22.3204C99.2849 22.3204 100.819 24.0053 100.819 26.0533V31.8909H98.6162V30.6463L98.618 30.6491ZM98.618 27.5858L96.4139 27.9685C95.2641 28.1784 94.8814 28.5444 94.8814 29.1165C94.8814 29.6887 95.4573 30.2636 96.3201 30.2636C97.5647 30.2636 98.6208 29.2104 98.6208 27.8719V27.5858H98.618ZM109.692 30.5534H109.597C109.597 30.5534 108.733 32.0832 106.53 32.0832C104.326 32.0832 102.313 30.0742 102.313 27.2032C102.313 24.3331 104.325 22.3232 106.53 22.3232C108.734 22.3232 109.597 23.8539 109.597 23.8539H109.692V18.4946H111.897V31.8928H109.692V30.5534ZM109.692 27.2032C109.692 25.6725 108.543 24.5226 107.106 24.5226C105.667 24.5226 104.518 25.6706 104.518 27.2032C104.518 28.7357 105.667 29.8837 107.106 29.8837C108.543 29.8837 109.692 28.7357 109.692 27.2032ZM119.374 30.6491H119.279C119.279 30.6491 118.416 32.086 116.501 32.086C114.585 32.086 113.435 30.8414 113.435 29.4054C113.435 27.8747 114.583 26.7248 116.212 26.4378L119.374 25.8629C119.374 25.1941 118.609 24.426 117.554 24.426C116.156 24.426 115.253 25.574 115.253 25.574L113.911 24.2337C113.911 24.2337 115.253 22.3204 117.648 22.3204C120.042 22.3204 121.577 24.0053 121.577 26.0533V31.8909H119.372V30.6463L119.374 30.6491ZM119.374 27.5858L117.17 27.9685C116.021 28.1784 115.639 28.5444 115.639 29.1165C115.639 29.6887 116.215 30.2636 117.076 30.2636C118.322 30.2636 119.377 29.2104 119.377 27.8719V27.5858H119.374Z" fill="black"/>
</g>
</g>
<defs>
<clipPath id="clip0_27_296">
<rect width="102.18" height="17.6476" fill="white" transform="translate(19.4102 16.1762)"/>
</clipPath>
</defs>
</svg>
