<svg width="93" height="24" viewBox="0 0 93 24" fill="none" xmlns="http://www.w3.org/2000/svg">
<mask id="mask0_27_307" style="mask-type:luminance" maskUnits="userSpaceOnUse" x="0" y="0" width="93" height="24">
<path d="M92.7891 0.572205H0.710938V23.4285H92.7891V0.572205Z" fill="white"/>
</mask>
<g mask="url(#mask0_27_307)">
<path d="M10.3419 7.37856H14.2768V13.281C14.3424 15.642 15.2605 17.0192 17.1624 17.0192C18.9987 17.0192 19.4578 15.7075 19.4578 13.281V7.37856H23.9174V13.5433C23.8519 18.7243 20.7039 20.7574 17.0969 20.7574C15.2605 20.7574 13.5554 20.2327 12.2438 18.9867C10.9246 20.1966 9.17906 20.8335 7.39065 20.7574C3.78361 20.7574 0.635651 18.7243 0.570068 13.5433V7.37856H5.02968V13.281C5.09526 15.642 5.48875 17.0192 7.39065 17.0192C9.22696 17.0192 10.2107 15.7075 10.2763 13.281V7.37856M30.6068 13.5433C30.6068 11.707 31.0659 9.54278 33.099 9.54278C35.132 9.54278 35.5911 11.707 35.5911 13.5433C35.5911 15.3796 35.132 17.5438 33.099 17.5438C31.0003 17.5438 30.6068 15.3796 30.6068 13.5433ZM33.0334 6.72274C29.0329 6.72274 25.6226 8.82138 25.6226 13.5433C25.6226 18.3308 29.0329 20.3639 33.0334 20.3639C37.0339 20.3639 40.4442 18.2653 40.4442 13.5433C40.5098 8.82138 37.0339 6.72274 33.0334 6.72274ZM47.0025 7.11623H42.0838C42.2149 8.49346 42.2149 9.28045 42.2149 10.4609V20.036H47.068V14.855C47.0025 12.3628 47.855 10.8544 50.3472 10.8544H51.3965V6.72274C49.2323 6.65715 47.6583 7.37856 47.1336 9.54278H47.068L47.0025 7.11623ZM53.1672 6.98507V10.0674H55.6594V18.7899C55.397 22.7249 57.3645 23.1839 60.6436 23.1839C61.365 23.1839 62.152 23.1184 63.2669 22.9216V20.036L61.4306 20.1016C60.3157 20.1016 60.5125 18.462 60.5125 18.0685V10.0674H63.3325V6.98507H60.5125V2.13196L55.6594 3.96827V6.98507H53.1672ZM77.3671 14.5271C77.3671 9.73953 75.7276 6.72274 70.5466 6.72274C66.6772 6.72274 63.6604 9.01812 63.6604 13.1498C63.6604 18.1997 65.6935 20.4295 70.8089 20.4295C72.3173 20.4295 73.7601 20.1671 74.875 19.4457C75.546 19.0918 76.1189 18.5771 76.5423 17.9477C76.9658 17.3182 77.2266 16.5936 77.3016 15.8387H72.842C72.6452 17.0192 71.7926 17.675 70.481 17.675C68.6447 17.675 68.2512 16.2322 68.2512 14.5926H77.3671V14.5271ZM68.3168 11.9038C68.4479 10.4609 68.8414 9.21487 70.5466 9.14929C71.268 9.0837 71.8582 9.41162 72.2517 10.0019C72.6452 10.5265 72.842 11.2479 72.842 11.9038H68.3168ZM85.565 20.5606C84.6468 20.6918 84.0566 20.6918 83.1384 20.6918C81.6956 20.6918 79.9904 19.8392 79.6625 18.2653C79.3346 16.6257 79.4658 14.9205 79.4658 13.2154V2.7222L83.9254 0.820312V16.2322C83.9254 17.2159 84.4501 17.8062 85.6305 17.5438V20.5606M92.779 20.5606C91.8609 20.6918 91.2706 20.6918 90.3525 20.6918C88.8441 20.6918 87.2045 19.8392 86.8766 18.2653C86.5487 16.6257 86.6143 14.9205 86.6143 13.2154V2.7222L91.0739 0.820313V16.2322C91.0739 17.2159 91.5985 17.8062 92.779 17.5438V20.5606Z" fill="#4DD275"/>
</g>
</svg>
